<?xml version="1.0" standalone="no"?>
<!DOCTYPE svg PUBLIC "-//W3C//DTD SVG 20010904//EN"
 "http://www.w3.org/TR/2001/REC-SVG-20010904/DTD/svg10.dtd">
<svg version="1.0" xmlns="http://www.w3.org/2000/svg"
 width="535.000000pt" height="535.000000pt" viewBox="0 0 535.000000 535.000000"
 preserveAspectRatio="xMidYMid meet">
<metadata>
Created by potrace 1.16, written by Peter Selinger 2001-2019
</metadata>
<g transform="translate(0.000000,535.000000) scale(0.100000,-0.100000)"
fill="#000000" stroke="none">
<path d="M2334 4875 c-33 -7 -108 -32 -167 -55 -59 -23 -111 -39 -117 -35 -5
3 -10 0 -10 -7 0 -7 -26 -28 -57 -45 -32 -18 -80 -48 -108 -67 -27 -20 -53
-36 -56 -36 -4 0 -21 -13 -39 -30 -25 -23 -34 -27 -45 -17 -11 10 -9 13 9 18
20 5 20 6 -4 14 -14 5 -28 8 -32 7 -14 -3 -9 15 7 28 8 7 15 17 15 23 0 7 -4
7 -12 -1 -7 -7 -22 -12 -34 -12 -13 0 -26 -5 -30 -11 -3 -6 -17 -8 -30 -5 -25
7 -31 -3 -14 -20 7 -7 -2 -17 -30 -30 -29 -13 -43 -27 -47 -46 -3 -16 -14 -29
-27 -32 -34 -9 -41 -7 -21 8 17 12 16 13 -10 20 -31 8 -54 -8 -59 -39 -2 -11
-9 -21 -16 -23 -7 -3 -10 0 -6 7 4 6 2 9 -7 5 -7 -2 -14 -18 -14 -34 l0 -28
29 29 c20 19 40 29 59 29 18 0 28 -4 24 -10 -3 -5 -13 -10 -21 -10 -8 0 -14
-5 -14 -11 0 -5 6 -7 13 -3 9 6 9 5 0 -8 -19 -22 -3 -31 20 -11 20 17 20 17
14 -1 -6 -14 -3 -17 8 -12 9 3 15 0 15 -9 0 -8 5 -15 11 -15 7 0 9 9 5 23 -4
19 0 27 22 37 15 8 30 13 35 12 4 -1 7 4 7 11 0 9 3 8 9 -2 11 -17 27 -7 46
30 12 22 13 29 3 29 -7 0 0 7 16 15 33 17 56 19 56 5 0 -6 -3 -9 -7 -9 -20 3
-34 -2 -29 -10 9 -13 -108 -128 -124 -123 -9 3 -11 -1 -7 -11 3 -9 -1 -21 -10
-29 -9 -7 -42 -49 -75 -93 -32 -43 -58 -73 -58 -66 0 8 -6 11 -15 7 -8 -3 -15
-1 -15 3 0 5 6 11 14 14 8 3 15 23 18 45 2 22 0 38 -4 36 -5 -3 -8 -13 -8 -22
-1 -26 -36 -63 -54 -56 -11 4 -16 0 -16 -15 0 -14 -5 -19 -15 -15 -10 4 -15 0
-15 -12 0 -17 -1 -16 -15 2 -10 13 -14 15 -15 5 0 -8 -3 -12 -6 -9 -3 4 2 18
11 32 18 27 9 36 -13 14 -9 -9 -12 -8 -12 6 0 9 -4 15 -10 11 -5 -3 -7 -12 -3
-20 6 -18 -13 -20 -21 -2 -2 6 -4 3 -3 -8 1 -11 -2 -20 -8 -20 -5 0 -9 3 -8 8
2 4 -2 7 -7 7 -6 0 -10 -7 -10 -15 0 -18 -37 -38 -53 -28 -21 13 -36 12 -30
-3 3 -7 10 -12 16 -11 8 1 11 -12 10 -37 -3 -44 -32 -79 -57 -70 -25 10 -19
-12 6 -23 35 -16 43 -15 44 5 0 9 5 28 11 42 6 14 13 32 16 40 3 8 4 -3 3 -26
-2 -23 -6 -46 -10 -53 -4 -6 -2 -11 4 -11 7 0 10 -7 7 -14 -4 -10 -1 -13 8
-10 10 4 12 0 8 -15 -3 -12 -1 -21 6 -21 6 0 11 9 11 20 0 29 53 54 80 38 21
-13 31 -7 43 27 3 6 8 7 12 3 4 -4 -2 -28 -14 -53 -11 -24 -21 -49 -21 -55 0
-5 -5 -10 -11 -10 -7 0 -9 9 -6 21 4 16 2 19 -10 14 -9 -3 -20 0 -24 6 -9 16
-39 4 -39 -16 0 -9 5 -13 10 -10 6 3 10 -1 10 -9 0 -9 -6 -16 -14 -16 -9 0
-12 -7 -9 -20 4 -14 0 -20 -12 -20 -10 0 -15 5 -12 13 2 6 -2 18 -9 25 -12 11
-13 10 -11 -5 2 -10 10 -31 18 -47 11 -23 11 -30 1 -34 -6 -2 -12 -9 -12 -16
0 -7 -12 -18 -26 -24 -19 -9 -24 -17 -19 -32 5 -15 0 -23 -17 -30 -13 -5 -31
-16 -41 -22 -13 -10 -20 -10 -25 -2 -4 7 -15 8 -27 3 -11 -4 -17 -8 -12 -8 4
-1 1 -14 -8 -31 -14 -26 -13 -30 1 -38 9 -5 16 -13 16 -18 1 -32 12 -33 39 -3
15 17 32 28 37 25 5 -3 17 3 27 14 10 11 24 20 32 20 7 0 13 5 13 10 0 6 5 10
11 10 5 0 7 -5 3 -11 -4 -8 1 -9 17 -4 20 6 22 5 12 -6 -7 -7 -13 -22 -13 -33
0 -17 2 -18 10 -6 8 13 10 12 10 -2 0 -11 -8 -18 -20 -18 -13 0 -18 -5 -14
-15 4 -8 9 -13 13 -11 3 2 7 -14 7 -37 0 -23 -1 -34 -3 -25 -3 11 -10 15 -20
11 -12 -5 -15 -2 -10 10 4 12 2 15 -11 11 -15 -5 -15 -4 1 9 18 15 23 37 8 37
-5 0 -11 9 -13 19 -3 18 -5 18 -28 5 -23 -14 -23 -14 -2 -9 16 5 22 2 22 -10
0 -11 -5 -15 -15 -11 -12 4 -13 2 -6 -13 7 -12 7 -30 1 -51 -7 -26 -7 -31 5
-26 10 4 15 -1 15 -15 0 -16 -4 -19 -20 -14 -12 4 -20 2 -20 -5 0 -6 -4 -9 -9
-6 -5 3 -22 -1 -37 -9 -16 -8 -24 -15 -17 -15 17 0 36 -72 22 -81 -8 -5 -8 -8
0 -13 18 -12 12 -24 -9 -19 -16 4 -18 11 -14 44 3 21 2 39 -4 39 -5 0 -9 -14
-10 -31 0 -17 -8 -36 -16 -42 -18 -14 -22 -62 -12 -177 6 -78 6 -83 -8 -60 -9
14 -15 20 -16 13 0 -6 -3 -18 -6 -27 -4 -11 0 -16 14 -16 21 0 25 -8 36 -65
13 -64 14 -95 4 -95 -6 0 -4 -8 5 -18 13 -15 15 -25 6 -55 -6 -24 -14 -34 -23
-31 -7 3 -16 -2 -20 -11 -3 -9 -9 -14 -13 -12 -5 3 -9 -8 -10 -23 -1 -18 4
-30 14 -34 22 -9 27 -1 9 17 -13 13 -12 15 12 15 15 0 30 -5 34 -12 5 -7 8 -4
8 7 0 11 5 17 13 14 6 -2 11 -10 9 -17 -1 -7 2 -18 8 -25 5 -7 14 -34 19 -61
8 -43 8 -47 -5 -30 -8 11 -14 23 -14 27 0 3 -11 7 -24 7 -18 0 -26 -7 -31 -26
-4 -15 -1 -28 5 -32 7 -4 11 -10 10 -14 -5 -21 7 -28 28 -15 20 12 24 12 32
-1 8 -12 12 -12 18 -2 6 9 18 -11 35 -61 15 -42 27 -82 27 -91 0 -9 4 -16 9
-16 5 0 6 -20 3 -45 -4 -36 -1 -49 14 -63 14 -12 19 -28 17 -56 -2 -32 1 -37
15 -33 47 13 47 13 47 -24 0 -31 -3 -35 -22 -31 -27 5 -28 1 -7 -39 20 -39 11
-50 -11 -12 l-16 28 7 -30 c11 -52 13 -75 3 -69 -5 3 -9 0 -9 -5 0 -6 4 -11 9
-11 6 0 14 -19 18 -42 5 -24 12 -41 17 -40 5 2 13 -2 17 -10 6 -9 9 -6 9 10 0
13 -4 21 -9 18 -5 -3 -11 1 -15 9 -3 8 -2 15 3 15 16 0 20 41 5 47 -8 3 -14
12 -14 21 0 13 3 12 20 -3 11 -10 20 -22 20 -26 0 -5 8 -18 18 -29 9 -12 17
-31 17 -43 0 -12 5 -22 12 -22 7 0 31 -20 54 -43 81 -85 194 -141 245 -122 13
5 24 8 25 7 0 -1 2 -13 3 -26 3 -21 1 -22 -9 -7 -19 25 -26 19 -14 -11 7 -18
7 -29 0 -31 -13 -4 55 -101 99 -139 47 -41 192 -117 262 -137 77 -22 247 -46
331 -46 40 0 67 -4 67 -11 0 -5 5 -7 11 -3 7 4 19 -2 28 -12 9 -11 15 -17 14
-15 -2 2 5 10 15 18 9 8 11 12 5 8 -7 -3 -13 -1 -13 4 0 20 20 11 32 -14 13
-28 39 -33 58 -10 9 11 17 12 31 4 10 -5 19 -7 19 -3 0 4 9 -1 19 -10 13 -12
21 -14 26 -6 4 7 -1 14 -13 17 -12 3 -19 13 -19 28 0 18 7 24 29 29 50 10 54
6 23 -19 -16 -13 -26 -28 -22 -32 5 -4 12 -1 17 7 6 9 10 10 10 3 0 -10 13
-11 63 -4 5 0 6 10 2 20 -3 12 1 28 12 40 20 24 29 26 48 9 45 -40 55 -46 55
-29 0 5 -9 12 -19 16 -23 7 -36 45 -14 45 8 0 12 -4 8 -9 -3 -5 8 -9 25 -9 17
1 29 6 27 12 -5 14 63 37 87 30 15 -5 18 -3 13 10 -4 9 -2 16 3 16 6 0 10 -5
10 -11 0 -5 5 -7 10 -4 6 4 8 15 5 26 -4 11 -2 19 5 19 6 0 9 -4 5 -9 -13 -22
11 -17 28 5 13 17 14 24 5 24 -8 0 -9 3 -3 8 20 14 72 88 106 149 l34 62 -22
23 -22 24 29 27 c19 18 27 34 23 44 -4 11 -3 14 5 9 7 -4 12 -1 12 8 0 9 4 16
10 16 5 0 10 10 10 23 -1 12 2 56 6 97 6 69 4 77 -15 95 -19 16 -24 17 -31 5
-8 -12 -10 -11 -11 5 -1 11 -3 25 -4 30 -2 6 -3 24 -4 40 -1 17 -4 25 -9 18
-5 -8 -11 -8 -24 1 -15 11 -16 15 -3 34 12 16 13 26 3 46 -6 14 -17 26 -25 26
-7 0 -13 11 -13 26 0 26 -20 54 -38 54 -6 0 -12 5 -14 11 -6 17 -38 4 -123
-51 -123 -81 -181 -107 -169 -75 4 8 1 15 -6 15 -7 0 -9 8 -5 22 6 17 4 20
-11 14 -66 -25 -354 -31 -354 -7 0 5 -12 6 -27 3 -22 -4 -25 -2 -20 12 4 9 3
14 -2 11 -5 -3 -11 4 -13 16 -2 16 -16 27 -53 39 -27 9 -61 22 -75 27 -36 15
-120 110 -114 128 4 8 1 15 -4 15 -6 0 -27 33 -48 73 -20 39 -43 81 -50 92
-19 26 -18 55 2 55 12 0 14 5 9 18 -12 28 -44 165 -45 190 0 15 4 21 13 17 6
-4 5 0 -4 7 -20 16 -27 49 -34 155 -5 76 -3 86 19 122 14 21 35 41 49 44 13 4
29 18 37 32 7 14 20 25 27 25 10 0 11 5 3 19 -15 29 -13 33 13 26 15 -4 18 -4
8 3 -18 13 -5 33 17 26 13 -5 14 -4 3 4 -8 6 -29 9 -48 7 -27 -2 -33 1 -33 17
0 16 -3 17 -21 8 -30 -16 -32 -8 -4 17 20 17 26 19 36 7 6 -8 18 -14 25 -14
10 0 11 6 4 26 -6 14 -10 29 -10 34 0 18 53 71 66 66 8 -3 14 1 14 10 0 12 2
12 14 2 8 -7 12 -16 9 -20 -8 -15 20 -8 39 8 16 16 18 16 24 0 4 -9 17 -16 33
-16 15 0 31 -3 35 -7 4 -5 12 -9 17 -9 5 -1 12 -2 15 -3 4 0 0 -9 -7 -18 -10
-11 -10 -14 -1 -9 7 4 12 1 12 -8 0 -20 24 -21 40 -1 8 9 8 15 2 15 -6 0 -14
9 -17 20 -4 11 -10 18 -15 15 -5 -3 -11 -1 -15 5 -4 6 -11 8 -16 5 -5 -4 -12
0 -15 8 -7 19 -39 28 -52 15 -6 -6 -12 -6 -16 1 -4 6 -3 11 2 11 6 0 5 10 -1
24 -7 13 -15 22 -19 20 -10 -6 -10 17 0 32 10 17 45 25 61 15 11 -7 8 -13 -13
-26 -23 -15 -40 -45 -17 -31 5 4 11 2 13 -4 5 -15 52 12 63 37 5 12 17 21 26
20 13 -1 15 -5 9 -18 -8 -14 -5 -15 22 -10 35 7 51 31 20 31 -20 0 -49 26 -39
36 3 3 21 6 40 7 19 1 33 5 32 8 -3 5 59 27 135 48 14 4 48 9 75 10 28 2 57 7
65 11 8 5 25 3 40 -5 21 -11 29 -11 45 1 10 8 30 14 44 14 17 0 21 -3 14 -8
-26 -16 1 -71 35 -72 18 0 15 17 -7 37 -19 18 -19 18 5 18 13 0 23 -4 23 -10
-3 -29 3 -45 16 -45 8 0 15 5 15 11 0 7 10 5 25 -5 14 -9 30 -14 36 -11 5 4
17 1 25 -6 10 -8 11 -14 4 -19 -7 -5 -6 -11 5 -20 13 -10 15 -9 15 8 0 30 21
32 46 5 21 -23 23 -23 33 -6 10 17 11 16 17 -5 5 -19 9 -20 22 -10 13 11 14 9
8 -12 -5 -18 -5 -21 3 -10 11 17 22 7 137 -130 91 -109 108 -123 132 -115 11
3 23 1 27 -5 4 -7 13 -7 27 1 19 10 19 12 -18 51 -34 35 -36 39 -15 33 13 -4
29 -8 35 -9 6 -2 23 -9 39 -16 25 -12 29 -11 47 7 19 21 19 21 -5 37 -35 23
-31 34 13 33 33 -1 43 5 97 62 33 34 67 72 75 83 8 11 24 32 36 46 11 15 23
35 27 45 3 9 10 17 15 17 5 0 28 24 50 53 22 28 56 69 76 90 l36 38 37 -26
c45 -30 54 -31 75 -6 15 17 14 22 -2 57 -9 22 -36 62 -59 91 -39 50 -50 70
-33 59 13 -8 35 11 27 23 -3 7 -41 32 -83 57 -42 24 -88 53 -102 64 l-25 20
23 1 c35 2 40 4 48 12 4 4 20 7 35 7 15 0 30 4 34 9 9 15 -62 79 -154 139 -82
54 -269 141 -303 142 -9 0 -22 8 -27 18 -6 9 -11 12 -11 6 0 -18 -49 -3 -55
17 -8 23 -25 25 -25 3 0 -12 -5 -14 -17 -9 -10 5 -106 10 -213 12 -107 2 -196
6 -199 8 -2 3 -10 0 -18 -6 -10 -9 -17 -8 -30 2 -12 10 -14 10 -9 1 10 -16 -3
-20 -109 -30 -89 -9 -109 -8 -89 6 6 4 13 15 17 24 4 12 2 15 -9 11 -7 -3 -14
0 -14 6 0 6 4 11 10 11 5 0 7 7 4 15 -4 8 -13 15 -21 15 -13 0 -13 -3 -3 -15
10 -12 10 -15 0 -15 -7 0 -10 -7 -6 -15 5 -15 -17 -21 -54 -16 -8 1 -32 4 -54
7 -35 4 -37 3 -25 -13 8 -9 9 -14 3 -10 -6 3 -10 -3 -10 -16 1 -14 -4 -21 -13
-19 -13 3 -31 -14 -31 -30 0 -5 7 -8 16 -8 10 0 14 -6 10 -15 -3 -8 3 -23 14
-32 18 -17 17 -18 -12 -20 -29 -2 -30 -1 -24 27 3 17 3 30 0 30 -14 0 -35 -32
-30 -45 6 -18 7 -18 -33 -4 -17 6 -31 17 -31 25 0 8 3 13 8 12 4 -1 17 3 30
10 12 7 27 10 32 7 6 -3 10 3 10 14 0 23 -18 32 -41 20 -14 -7 -14 -3 -5 34 6
23 17 51 23 62 10 17 15 18 32 7 29 -17 29 7 1 31 -24 20 -70 21 -156 2z"/>
<path d="M3287 2484 c-9 -10 22 -55 66 -95 30 -28 38 -41 32 -58 -5 -16 -2
-21 12 -21 17 -1 17 -1 1 -11 -24 -14 -22 -24 7 -37 16 -7 25 -20 25 -34 -1
-13 3 -44 8 -70 5 -27 5 -48 1 -48 -5 0 -5 -10 0 -22 4 -13 6 -29 4 -36 -3 -7
0 -18 6 -26 7 -8 8 -23 1 -46 -5 -19 -7 -36 -4 -39 2 -3 7 5 11 17 16 65 32
-31 31 -188 -1 -69 -2 -74 -5 -25 -2 32 -8 65 -14 71 -5 6 -7 19 -3 28 5 12 0
16 -20 16 -24 0 -26 -4 -26 -40 0 -29 -4 -40 -15 -40 -9 0 -15 -10 -16 -22 0
-13 -3 -32 -6 -43 -3 -11 -4 -39 -4 -62 1 -32 -2 -43 -13 -43 -13 0 -14 -4 -4
-25 10 -22 8 -30 -10 -55 -12 -16 -22 -35 -22 -42 0 -9 3 -9 10 2 5 8 10 10
10 4 0 -6 -6 -17 -14 -23 -20 -17 -29 25 -9 44 8 8 13 15 11 16 -35 7 -57 5
-62 -6 -2 -7 2 -16 11 -19 12 -5 13 -9 3 -21 -7 -8 -21 -15 -31 -15 -35 0 -19
-17 21 -24 40 -6 40 -6 24 -31 -21 -32 -34 -32 -34 0 0 14 -5 25 -11 25 -5 0
-7 -4 -4 -10 3 -5 0 -10 -7 -10 -8 0 -25 -8 -38 -17 -14 -10 -31 -18 -38 -20
-8 -1 -39 -26 -71 -56 -59 -56 -61 -57 -226 -102 -112 -30 -120 -33 -102 -34
23 -1 45 -22 40 -38 -2 -6 4 -13 14 -16 10 -3 -2 -5 -27 -6 -25 -1 -62 -6 -82
-12 -39 -10 -52 -29 -20 -29 16 -1 16 -1 0 -14 -19 -14 -24 -36 -9 -36 5 0 11
-7 14 -15 4 -9 -5 -21 -24 -32 -27 -16 -28 -19 -12 -30 9 -7 25 -13 35 -13 25
0 22 -19 -6 -41 -21 -17 -24 -27 -25 -101 -1 -46 -5 -121 -8 -168 -2 -47 -6
-125 -8 -175 -2 -49 -5 -121 -7 -158 l-3 -69 40 -14 c66 -23 234 -12 271 17 6
5 13 6 16 4 6 -7 109 29 158 55 19 10 55 23 79 30 66 18 143 54 210 99 62 43
181 156 181 173 0 6 11 7 26 4 22 -6 25 -4 19 13 -7 24 10 61 30 61 14 0 27
29 29 65 1 11 6 20 13 20 7 0 18 6 25 13 9 9 9 12 0 12 -7 0 -12 -5 -12 -12 0
-6 -3 -8 -6 -5 -9 8 16 38 26 32 16 -10 33 25 23 47 -11 25 8 72 32 82 8 3 15
12 15 20 0 8 6 19 13 23 7 4 24 23 39 41 l27 33 17 -26 c15 -23 15 -27 -2 -52
l-17 -28 26 18 c26 17 27 17 27 -4 0 -14 -10 -24 -30 -32 -16 -6 -30 -15 -30
-20 0 -4 9 -3 19 2 15 8 20 7 25 -6 4 -9 4 -18 1 -21 -3 -3 -5 -1 -5 5 0 6 -9
9 -20 6 -11 -3 -20 -11 -20 -19 0 -16 15 -26 24 -16 4 4 17 7 28 7 12 0 23 6
26 13 2 6 -2 12 -8 12 -8 0 -7 9 5 26 9 14 14 28 11 31 -3 3 -1 14 5 24 8 15
2 26 -33 60 -42 41 -42 41 -22 58 12 9 24 23 27 31 4 8 4 -1 1 -20 -4 -28 -3
-32 6 -20 10 12 11 11 7 -7 -4 -20 -1 -23 25 -23 16 0 27 4 23 10 -3 5 -12 7
-20 3 -11 -4 -13 -1 -9 11 3 9 14 16 23 16 14 0 14 2 1 10 -12 8 -11 12 6 32
27 30 37 55 39 96 1 18 9 40 17 49 12 12 13 20 4 39 -19 40 -33 26 -27 -30 1
-11 -5 -26 -13 -35 -8 -9 -15 -19 -16 -23 -9 -41 -13 -49 -21 -37 -4 7 -1 25
7 41 8 15 13 31 12 35 -1 4 2 24 6 43 6 34 11 64 21 143 3 25 0 37 -8 37 -7 0
-4 5 6 11 9 6 15 15 12 20 -4 5 -12 6 -18 3 -9 -5 -9 -4 0 6 9 10 8 16 -3 27
-17 18 -18 43 -1 43 7 0 18 -9 25 -20 7 -11 18 -17 27 -14 8 4 15 1 15 -5 0
-6 -4 -11 -10 -11 -5 0 -10 -11 -10 -24 0 -13 -6 -26 -12 -28 -8 -3 -5 -9 9
-16 18 -10 23 -9 28 7 3 12 12 18 20 15 7 -3 16 3 20 15 8 25 -1 41 -21 41 -8
0 -14 5 -14 10 0 6 -7 10 -16 10 -10 0 -14 6 -11 14 3 8 1 17 -6 19 -9 3 -9 7
0 19 7 8 10 18 6 21 -3 4 2 16 11 26 17 19 15 41 -4 41 -10 0 -25 -40 -21 -58
2 -11 -2 -11 -20 -2 -20 11 -21 10 -15 -14 4 -16 2 -26 -4 -26 -6 0 -8 5 -5
10 3 6 2 10 -3 10 -5 0 -17 21 -26 48 -10 26 -21 55 -27 65 -14 26 -4 21 38
-21 30 -30 41 -36 50 -26 14 14 7 25 -12 18 -7 -3 -15 2 -18 10 -4 10 -1 16 9
16 9 0 14 6 11 13 -2 6 -13 11 -23 9 -18 -2 -18 -2 -1 8 21 14 22 34 1 54 -17
18 -39 22 -29 6 3 -5 2 -10 -4 -10 -6 0 -8 -7 -5 -15 4 -8 1 -15 -6 -15 -6 0
-8 5 -5 10 3 6 -2 13 -12 17 -26 10 -41 27 -54 60 -5 15 -7 24 -3 20 4 -4 17
12 28 35 12 24 27 43 35 43 8 0 16 6 19 13 2 7 -5 12 -16 12 -12 0 -25 -12
-35 -32 -13 -26 -17 -29 -22 -16 -4 9 -4 21 -1 26 3 6 0 12 -7 15 -9 3 -12 16
-9 36 5 35 -16 44 -25 12 -3 -12 -11 -17 -20 -14 -11 5 -12 7 -2 14 10 6 10
13 -1 36 -19 39 -21 126 -3 119 15 -6 18 10 3 19 -6 4 -8 11 -5 16 4 5 -1 9
-10 9 -11 0 -15 -5 -11 -15 9 -25 -10 -17 -29 11 -11 17 -23 24 -35 21 -15 -4
-17 0 -13 27 3 17 7 33 9 35 2 2 -5 15 -16 29 -11 13 -17 29 -13 36 3 6 2 8
-2 3 -17 -15 -34 -77 -21 -77 7 0 7 -3 -1 -8 -9 -6 -6 -16 12 -36 14 -16 25
-35 25 -42 0 -7 5 -16 12 -20 8 -5 9 -2 5 10 -4 11 -3 15 4 11 6 -4 8 -13 5
-21 -6 -16 29 -38 45 -28 7 4 7 -1 0 -15 -7 -12 -9 -27 -5 -33 5 -7 2 -8 -7
-3 -20 12 -59 49 -59 56 0 3 -22 29 -50 57 -27 28 -50 56 -50 62 0 6 -4 8 -10
5 -11 -7 -121 67 -197 133 -15 12 -36 24 -47 27 -58 11 -93 15 -99 9z"/>
</g>
</svg>
